<?xml version="1.0" encoding="utf-8"?>
<!-- Generated by IcoMoon.io -->
<!DOCTYPE svg PUBLIC "-//W3C//DTD SVG 1.1//EN" "http://www.w3.org/Graphics/SVG/1.1/DTD/svg11.dtd">
<svg version="1.1" xmlns="http://www.w3.org/2000/svg" xmlns:xlink="http://www.w3.org/1999/xlink" width="4244" height="32" viewBox="0 0 4244 32">
<svg id="icon-ok-secondary" width="39" height="32" viewBox="0 0 39 32" x="0" y="0">
<path d="M33.278 0.33c-0.206-0.206-0.49-0.333-0.804-0.333s-0.598 0.127-0.804 0.333l-16.875 16.875c-0.206 0.206-0.49 0.333-0.804 0.333s-0.598-0.127-0.804-0.333l-5.625-5.625c-0.206-0.206-0.49-0.333-0.804-0.333s-0.598 0.127-0.804 0.333l-5.625 5.625c-0.206 0.206-0.333 0.49-0.333 0.804s0.127 0.598 0.333 0.804l12.858 12.858c0.206 0.206 0.49 0.333 0.804 0.333s0.598-0.127 0.804-0.333l24.108-24.108c0.206-0.206 0.333-0.49 0.333-0.804s-0.127-0.598-0.333-0.804z"></path>
</svg>
<svg id="icon-close-primary" width="32" height="32" viewBox="0 0 32 32" x="52" y="0">
<path fill="#fed430" d="M31.671 7.572c0.461-0.461 0.461-1.185 0-1.58l-5.597-5.597c-0.461-0.461-1.185-0.461-1.58 0l-7.704 7.572c-0.461 0.461-1.185 0.461-1.58 0l-7.638-7.638c-0.461-0.461-1.185-0.461-1.58 0l-5.663 5.597c-0.461 0.461-0.461 1.185 0 1.58l7.638 7.638c0.461 0.461 0.461 1.185 0 1.58l-7.638 7.704c-0.461 0.461-0.461 1.185 0 1.58l5.597 5.663c0.461 0.461 1.185 0.461 1.58 0l7.638-7.638c0.461-0.461 1.185-0.461 1.58 0l7.638 7.638c0.461 0.461 1.185 0.461 1.58 0l5.597-5.597c0.461-0.461 0.461-1.185 0-1.58l-7.506-7.704c-0.461-0.461-0.461-1.185 0-1.58l7.638-7.638z"></path>
</svg>
<svg id="icon-edit-primary" width="32" height="32" viewBox="0 0 32 32" x="104" y="0">
<path fill="#fed430" d="M20.369 5.847l-17.54 17.477-2.829 8.739 8.676-2.829 17.54-17.54-5.847-5.847z"></path>
<path fill="#fed430" d="M22.323 3.819l3.822-3.825 5.826 5.822-3.822 3.825-5.826-5.822z"></path>
</svg>
<svg id="icon-next-primary" width="24" height="32" viewBox="0 0 24 32" x="156" y="0">
<path fill="#fed430" d="M6.815 15.059c0.519 0.519 0.519 1.298 0 1.817 0 0 0 0 0 0l-6.426 6.426c-0.519 0.519-0.519 1.298 0 1.817 0 0 0 0 0 0l6.426 6.426c0.519 0.519 1.298 0.519 1.817 0 0 0 0 0 0 0l14.734-14.669c0.519-0.519 0.519-1.298 0-1.817 0 0 0 0 0 0l-14.734-14.669c-0.519-0.519-1.298-0.519-1.817 0 0 0 0 0 0 0l-6.426 6.426c-0.519 0.519-0.519 1.298 0 1.817 0 0 0 0 0 0l6.426 6.426z"></path>
</svg>
<svg id="icon-ok-primary" width="39" height="32" viewBox="0 0 39 32" x="208" y="0">
<path fill="#fed430" d="M33.307 0.341c-0.455-0.455-1.137-0.455-1.591 0 0 0 0 0 0 0l-16.938 16.881c-0.455 0.455-1.137 0.455-1.591 0 0 0 0 0 0 0l-5.627-5.627c-0.455-0.455-1.137-0.455-1.591 0 0 0 0 0 0 0l-5.627 5.627c-0.455 0.455-0.455 1.137 0 1.591 0 0 0 0 0 0l12.845 12.845c0.455 0.455 1.137 0.455 1.591 0 0 0 0 0 0 0l24.099-24.099c0.455-0.455 0.455-1.137 0-1.591 0 0 0 0 0 0l-5.57-5.627z"></path>
</svg>
<svg id="icon-prev-primary" width="24" height="32" viewBox="0 0 24 32" x="260" y="0">
<path fill="#fed430" d="M16.876 16.876c-0.519-0.519-0.519-1.298 0-1.817 0 0 0 0 0 0l6.426-6.426c0.519-0.519 0.519-1.298 0-1.817 0 0 0 0 0 0l-6.426-6.426c-0.519-0.519-1.298-0.519-1.817 0 0 0 0 0 0 0l-14.669 14.669c-0.519 0.519-0.519 1.298 0 1.817 0 0 0 0 0 0l14.669 14.669c0.519 0.519 1.298 0.519 1.817 0 0 0 0 0 0 0l6.426-6.426c0.519-0.519 0.519-1.298 0-1.817 0 0 0 0 0 0l-6.426-6.426z"></path>
</svg>
<svg id="icon-close-secondary" width="32" height="32" viewBox="0 0 32 32" x="312" y="0">
<path d="M31.664 7.564c0.205-0.206 0.332-0.49 0.332-0.804s-0.127-0.598-0.332-0.804l-5.626-5.626c-0.206-0.205-0.49-0.332-0.804-0.332s-0.598 0.127-0.804 0.332l-7.629 7.629c-0.206 0.205-0.49 0.332-0.804 0.332s-0.598-0.127-0.804-0.332l-7.629-7.629c-0.206-0.205-0.49-0.332-0.804-0.332s-0.598 0.127-0.804 0.332l-5.626 5.626c-0.205 0.206-0.332 0.49-0.332 0.804s0.127 0.598 0.332 0.804l7.629 7.629c0.205 0.206 0.332 0.49 0.332 0.804s-0.127 0.598-0.332 0.804l-7.629 7.629c-0.205 0.206-0.332 0.49-0.332 0.804s0.127 0.598 0.332 0.804l5.626 5.626c0.206 0.205 0.49 0.332 0.804 0.332s0.598-0.127 0.804-0.332l7.629-7.629c0.206-0.205 0.49-0.332 0.804-0.332s0.598 0.127 0.804 0.332l7.629 7.629c0.206 0.205 0.49 0.332 0.804 0.332s0.598-0.127 0.804-0.332l5.626-5.626c0.205-0.206 0.332-0.49 0.332-0.804s-0.127-0.598-0.332-0.804l-7.629-7.629c-0.205-0.206-0.332-0.49-0.332-0.804s0.127-0.598 0.332-0.804z"></path>
</svg>
<svg id="icon-edit-secondary" width="32" height="32" viewBox="0 0 32 32" x="364" y="0">
<path d="M20.334 5.833l-17.518 17.518-2.816 8.68 8.649-2.81 17.524-17.556z"></path>
<path d="M22.315 3.833l3.843-3.846 5.842 5.838-3.843 3.846-5.842-5.838z"></path>
</svg>
<svg id="icon-next-secondary" width="24" height="32" viewBox="0 0 24 32" x="416" y="0">
<path d="M6.829 15.081c0.235 0.235 0.381 0.56 0.381 0.919s-0.146 0.684-0.381 0.919l-6.433 6.433c-0.235 0.235-0.381 0.56-0.381 0.919s0.146 0.684 0.381 0.919l6.433 6.433c0.235 0.235 0.56 0.381 0.919 0.381s0.684-0.146 0.919-0.381l14.704-14.704c0.235-0.235 0.381-0.56 0.381-0.919s-0.146-0.684-0.381-0.919l-14.723-14.704c-0.235-0.235-0.56-0.381-0.919-0.381s-0.684 0.146-0.919 0.381l-6.433 6.433c-0.235 0.235-0.381 0.56-0.381 0.919s0.146 0.684 0.381 0.919z"></path>
</svg>
<svg id="icon-prev-secondary" width="24" height="32" viewBox="0 0 24 32" x="468" y="0">
<path d="M16.919 16.913c-0.235-0.235-0.381-0.56-0.381-0.919s0.146-0.684 0.381-0.919l6.433-6.433c0.235-0.235 0.381-0.56 0.381-0.919s-0.146-0.684-0.381-0.919l-6.433-6.433c-0.235-0.235-0.56-0.381-0.919-0.381s-0.684 0.146-0.919 0.381l-14.697 14.71c-0.235 0.235-0.381 0.56-0.381 0.919s0.146 0.684 0.381 0.919l14.704 14.704c0.235 0.235 0.56 0.381 0.919 0.381s0.684-0.146 0.919-0.381l6.433-6.433c0.235-0.235 0.381-0.56 0.381-0.919s-0.146-0.684-0.381-0.919z"></path>
</svg>
</svg>
